<svg width="209" height="182" viewBox="0 0 209 182" fill="none" xmlns="http://www.w3.org/2000/svg">
<path d="M83.876 171.147V171.619H80.6136V171.281L82.6356 168.152H83.1038L82.6014 169.057L81.2648 171.147H83.876ZM83.2465 168.152V172.667H82.6728V168.152H83.2465ZM85.7678 172.667H84.825L84.8312 172.18H85.7678C86.0903 172.18 86.359 172.113 86.5741 171.979C86.7891 171.842 86.9503 171.652 87.0578 171.408C87.1674 171.162 87.2222 170.875 87.2222 170.546V170.27C87.2222 170.011 87.1912 169.782 87.1292 169.581C87.0671 169.379 86.9762 169.208 86.8563 169.07C86.7364 168.929 86.5896 168.823 86.4159 168.75C86.2443 168.678 86.0469 168.642 85.8236 168.642H84.8064V168.152H85.8236C86.1192 168.152 86.389 168.201 86.633 168.301C86.8769 168.398 87.0868 168.539 87.2625 168.725C87.4403 168.909 87.5768 169.133 87.6719 169.395C87.767 169.656 87.8145 169.949 87.8145 170.276V170.546C87.8145 170.872 87.767 171.167 87.6719 171.43C87.5768 171.69 87.4393 171.912 87.2594 172.096C87.0816 172.28 86.8666 172.422 86.6144 172.521C86.3642 172.618 86.082 172.667 85.7678 172.667ZM85.1444 168.152V172.667H84.5459V168.152H85.1444Z" fill="#828282"/>
<path d="M115.52 171.199L115.061 171.081L115.287 168.832H117.604V169.363H115.774L115.638 170.591C115.72 170.543 115.825 170.499 115.951 170.457C116.079 170.416 116.226 170.395 116.391 170.395C116.6 170.395 116.787 170.432 116.953 170.504C117.118 170.574 117.259 170.675 117.374 170.808C117.492 170.94 117.582 171.099 117.644 171.285C117.706 171.471 117.737 171.679 117.737 171.909C117.737 172.126 117.707 172.325 117.647 172.507C117.589 172.689 117.502 172.848 117.384 172.985C117.266 173.119 117.117 173.224 116.937 173.298C116.759 173.372 116.549 173.41 116.308 173.41C116.126 173.41 115.953 173.385 115.79 173.335C115.628 173.284 115.484 173.206 115.356 173.103C115.229 172.997 115.126 172.867 115.045 172.712C114.967 172.555 114.917 172.371 114.897 172.16H115.442C115.467 172.329 115.517 172.472 115.591 172.588C115.666 172.704 115.763 172.792 115.883 172.851C116.005 172.909 116.146 172.938 116.308 172.938C116.444 172.938 116.565 172.915 116.67 172.867C116.776 172.819 116.865 172.751 116.937 172.662C117.009 172.573 117.064 172.466 117.101 172.34C117.141 172.214 117.16 172.072 117.16 171.915C117.16 171.772 117.141 171.64 117.101 171.518C117.062 171.396 117.003 171.29 116.925 171.199C116.848 171.108 116.754 171.037 116.642 170.988C116.531 170.936 116.403 170.91 116.258 170.91C116.066 170.91 115.92 170.936 115.821 170.988C115.724 171.039 115.623 171.11 115.52 171.199ZM119.737 173.348H118.795L118.801 172.861H119.737C120.06 172.861 120.329 172.794 120.544 172.659C120.759 172.523 120.92 172.333 121.028 172.089C121.137 171.843 121.192 171.555 121.192 171.226V170.95C121.192 170.692 121.161 170.463 121.099 170.262C121.037 170.059 120.946 169.889 120.826 169.75C120.706 169.61 120.559 169.503 120.386 169.431C120.214 169.358 120.017 169.322 119.793 169.322H118.776V168.832H119.793C120.089 168.832 120.359 168.882 120.603 168.981C120.847 169.078 121.057 169.22 121.232 169.406C121.41 169.59 121.547 169.813 121.642 170.076C121.737 170.336 121.784 170.63 121.784 170.957V171.226C121.784 171.553 121.737 171.848 121.642 172.11C121.547 172.371 121.409 172.593 121.229 172.777C121.051 172.961 120.836 173.103 120.584 173.202C120.334 173.299 120.052 173.348 119.737 173.348ZM119.114 168.832V173.348H118.516V168.832H119.114Z" fill="#828282"/>
<path d="M150.967 168.826H151.016V169.313H150.967C150.663 169.313 150.409 169.363 150.204 169.462C149.999 169.559 149.837 169.69 149.717 169.856C149.597 170.019 149.51 170.203 149.456 170.408C149.405 170.612 149.379 170.82 149.379 171.031V171.695C149.379 171.895 149.403 172.073 149.45 172.228C149.498 172.381 149.563 172.51 149.646 172.616C149.728 172.721 149.821 172.801 149.925 172.855C150.03 172.908 150.14 172.935 150.253 172.935C150.386 172.935 150.504 172.91 150.607 172.861C150.71 172.809 150.797 172.738 150.867 172.647C150.94 172.554 150.995 172.444 151.032 172.318C151.069 172.192 151.088 172.053 151.088 171.903C151.088 171.768 151.071 171.639 151.038 171.515C151.005 171.389 150.954 171.277 150.886 171.18C150.818 171.081 150.732 171.003 150.629 170.947C150.527 170.889 150.406 170.861 150.266 170.861C150.107 170.861 149.958 170.9 149.819 170.978C149.683 171.055 149.57 171.156 149.481 171.282C149.394 171.406 149.345 171.542 149.332 171.689L149.028 171.685C149.057 171.454 149.111 171.256 149.19 171.093C149.27 170.928 149.37 170.793 149.487 170.69C149.607 170.585 149.741 170.508 149.888 170.46C150.036 170.411 150.194 170.386 150.359 170.386C150.584 170.386 150.779 170.428 150.942 170.513C151.105 170.598 151.24 170.712 151.345 170.854C151.451 170.995 151.528 171.154 151.578 171.332C151.629 171.508 151.655 171.689 151.655 171.875C151.655 172.088 151.625 172.287 151.565 172.473C151.505 172.659 151.415 172.823 151.295 172.963C151.178 173.104 151.032 173.213 150.858 173.292C150.685 173.37 150.483 173.41 150.253 173.41C150.01 173.41 149.797 173.36 149.615 173.261C149.433 173.16 149.282 173.025 149.162 172.858C149.042 172.69 148.952 172.504 148.892 172.299C148.832 172.095 148.802 171.887 148.802 171.676V171.406C148.802 171.088 148.834 170.776 148.898 170.47C148.962 170.164 149.073 169.887 149.23 169.639C149.389 169.391 149.609 169.193 149.891 169.046C150.172 168.9 150.53 168.826 150.967 168.826ZM153.708 173.348H152.765L152.772 172.861H153.708C154.031 172.861 154.299 172.794 154.514 172.659C154.73 172.523 154.891 172.333 154.998 172.089C155.108 171.843 155.163 171.555 155.163 171.226V170.95C155.163 170.692 155.132 170.463 155.07 170.262C155.008 170.059 154.917 169.889 154.797 169.75C154.677 169.61 154.53 169.503 154.356 169.431C154.185 169.358 153.987 169.322 153.764 169.322H152.747V168.832H153.764C154.06 168.832 154.329 168.882 154.573 168.981C154.817 169.078 155.027 169.22 155.203 169.406C155.381 169.59 155.517 169.813 155.612 170.076C155.707 170.336 155.755 170.63 155.755 170.957V171.226C155.755 171.553 155.707 171.848 155.612 172.11C155.517 172.371 155.38 172.593 155.2 172.777C155.022 172.961 154.807 173.103 154.555 173.202C154.305 173.299 154.022 173.348 153.708 173.348ZM153.085 168.832V173.348H152.486V168.832H153.085Z" fill="#828282"/>
<path d="M183.089 168.832V169.155L181.219 173.348H180.615L182.482 169.304H180.038V168.832H183.089ZM185.114 173.348H184.172L184.178 172.861H185.114C185.437 172.861 185.706 172.794 185.921 172.659C186.136 172.523 186.297 172.333 186.405 172.089C186.514 171.843 186.569 171.555 186.569 171.226V170.95C186.569 170.692 186.538 170.463 186.476 170.262C186.414 170.059 186.323 169.889 186.203 169.75C186.083 169.61 185.936 169.503 185.763 169.431C185.591 169.358 185.394 169.322 185.17 169.322H184.153V168.832H185.17C185.466 168.832 185.736 168.882 185.98 168.981C186.224 169.078 186.433 169.22 186.609 169.406C186.787 169.59 186.923 169.813 187.019 170.076C187.114 170.336 187.161 170.63 187.161 170.957V171.226C187.161 171.553 187.114 171.848 187.019 172.11C186.923 172.371 186.786 172.593 186.606 172.777C186.428 172.961 186.213 173.103 185.961 173.202C185.711 173.299 185.429 173.348 185.114 173.348ZM184.491 168.832V173.348H183.893V168.832H184.491Z" fill="#828282"/>
<rect x="30.2422" y="161.903" width="27.7739" height="19.6592" rx="9.82962" fill="#E7E7E7" fill-opacity="0.92"/>
<path d="M42.8471 172.955V173.652H39.7584V173.057L41.219 171.491C41.3658 171.327 41.4816 171.184 41.5664 171.06C41.6511 170.934 41.7121 170.821 41.7493 170.722C41.7886 170.62 41.8082 170.524 41.8082 170.433C41.8082 170.297 41.7855 170.18 41.74 170.083C41.6945 169.984 41.6273 169.907 41.5384 169.853C41.4516 169.8 41.3441 169.773 41.2159 169.773C41.0795 169.773 40.9616 169.806 40.8624 169.872C40.7652 169.938 40.6908 170.03 40.6391 170.148C40.5895 170.266 40.5647 170.399 40.5647 170.548H39.6684C39.6684 170.279 39.7325 170.033 39.8607 169.81C39.9889 169.585 40.1698 169.406 40.4034 169.273C40.637 169.139 40.9141 169.072 41.2345 169.072C41.5508 169.072 41.8175 169.124 42.0346 169.227C42.2538 169.328 42.4192 169.475 42.5308 169.667C42.6445 169.858 42.7014 170.085 42.7014 170.35C42.7014 170.498 42.6776 170.644 42.6301 170.787C42.5825 170.927 42.5143 171.068 42.4254 171.209C42.3385 171.347 42.2331 171.488 42.1091 171.63C41.985 171.773 41.8475 171.921 41.6966 172.074L40.912 172.955H42.8471ZM44.8846 173.652H43.9015L43.9077 172.927H44.8846C45.1286 172.927 45.3343 172.872 45.5018 172.762C45.6692 172.651 45.7953 172.488 45.8801 172.275C45.9669 172.062 46.0103 171.805 46.0103 171.503V171.283C46.0103 171.051 45.9855 170.848 45.9359 170.672C45.8884 170.496 45.817 170.349 45.7219 170.229C45.6268 170.109 45.51 170.019 45.3715 169.959C45.233 169.897 45.0738 169.866 44.8939 169.866H43.8829V169.137H44.8939C45.1958 169.137 45.4718 169.189 45.7219 169.292C45.9742 169.393 46.1923 169.539 46.3763 169.729C46.5603 169.92 46.7019 170.147 46.8012 170.412C46.9025 170.674 46.9531 170.967 46.9531 171.289V171.503C46.9531 171.824 46.9025 172.116 46.8012 172.381C46.7019 172.645 46.5603 172.873 46.3763 173.063C46.1944 173.251 45.9762 173.397 45.7219 173.5C45.4697 173.602 45.1906 173.652 44.8846 173.652ZM44.4287 169.137V173.652H43.4984V169.137H44.4287Z" fill="#151515"/>
<path d="M1.07422 131.672C12.1442 131.672 13.2155 146.085 24.9997 146.085C36.7839 146.085 33.9271 105.121 44.9972 105.121C56.0672 105.121 49.9965 70.6056 65.3517 70.6056C80.7069 70.6056 73.5649 105.121 87.4917 105.121C101.418 105.121 99.2759 64.8297 108.203 64.8297C117.131 64.8297 114.631 88.8116 125.344 88.8116C136.057 88.8116 131.058 49.2559 142.485 49.2559C153.912 49.2559 152.84 66.5225 163.196 66.5225C173.552 66.5225 174.623 86.5359 188.907 86.5359C203.191 86.5359 194.264 108.843 207.833 108.843" stroke="#6C5FBC" stroke-width="1.98779" stroke-linecap="round" stroke-linejoin="round"/>
<path d="M176.583 73.9432C176.583 76.0519 174.992 77.6425 173.172 77.6425C171.352 77.6425 169.761 76.0519 169.761 73.9432C169.761 71.8344 171.352 70.2438 173.172 70.2438C174.992 70.2438 176.583 71.8344 176.583 73.9432Z" fill="#C5BFED" stroke="#6C5FBC" stroke-width="2.22012"/>
<rect x="172.556" y="52.0459" width="25.6489" height="11.9084" rx="5.95422" fill="#6C5FBC"/>
<path d="M181.199 58.7623C181.199 58.9547 181.149 59.136 181.049 59.3062C180.953 59.4728 180.808 59.6115 180.616 59.7225C180.427 59.8298 180.203 59.8927 179.944 59.9112V60.3608H179.589V59.9057C179.219 59.8724 178.921 59.7614 178.696 59.5727C178.47 59.3803 178.353 59.1212 178.346 58.7956H179.178C179.201 59.062 179.338 59.223 179.589 59.2785V58.2184C179.323 58.1518 179.108 58.0852 178.945 58.0186C178.783 57.952 178.642 57.8447 178.524 57.6967C178.405 57.5487 178.346 57.347 178.346 57.0917C178.346 56.7698 178.461 56.5071 178.69 56.3035C178.923 56.1 179.223 55.9835 179.589 55.9539V55.5043H179.944V55.9539C180.3 55.9835 180.583 56.0908 180.794 56.2758C181.008 56.4608 181.128 56.7161 181.154 57.0417H180.316C180.305 56.9344 180.266 56.8419 180.2 56.7642C180.137 56.6828 180.052 56.6255 179.944 56.5922V57.6412C180.222 57.7115 180.44 57.7799 180.599 57.8465C180.762 57.9094 180.903 58.0149 181.021 58.1629C181.14 58.3072 181.199 58.507 181.199 58.7623ZM179.156 57.0528C179.156 57.1749 179.193 57.2748 179.267 57.3525C179.341 57.4266 179.449 57.4876 179.589 57.5357V56.5755C179.456 56.594 179.351 56.644 179.273 56.7254C179.195 56.8068 179.156 56.9159 179.156 57.0528ZM179.944 59.2896C180.085 59.2637 180.194 59.2063 180.272 59.1175C180.353 59.0287 180.394 58.9214 180.394 58.7956C180.394 58.6735 180.355 58.5755 180.277 58.5015C180.2 58.4275 180.089 58.3664 179.944 58.3183V59.2896ZM181.944 59.0898V58.4793L183.759 55.8817H184.664V58.4127H185.152V59.0898H184.664V59.8779H183.887V59.0898H181.944ZM183.937 56.7143L182.799 58.4127H183.937V56.7143ZM185.647 57.8021C185.647 57.162 185.762 56.6606 185.991 56.298C186.224 55.9354 186.609 55.7541 187.146 55.7541C187.682 55.7541 188.065 55.9354 188.294 56.298C188.528 56.6606 188.644 57.162 188.644 57.8021C188.644 58.446 188.528 58.951 188.294 59.3174C188.065 59.6837 187.682 59.8668 187.146 59.8668C186.609 59.8668 186.224 59.6837 185.991 59.3174C185.762 58.951 185.647 58.446 185.647 57.8021ZM187.878 57.8021C187.878 57.5283 187.86 57.2989 187.823 57.1139C187.789 56.9252 187.719 56.7716 187.612 56.6532C187.508 56.5348 187.353 56.4756 187.146 56.4756C186.938 56.4756 186.781 56.5348 186.674 56.6532C186.57 56.7716 186.5 56.9252 186.463 57.1139C186.43 57.2989 186.413 57.5283 186.413 57.8021C186.413 58.0833 186.43 58.3201 186.463 58.5126C186.496 58.7013 186.566 58.8548 186.674 58.9732C186.781 59.0879 186.938 59.1453 187.146 59.1453C187.353 59.1453 187.51 59.0879 187.617 58.9732C187.725 58.8548 187.795 58.7013 187.828 58.5126C187.862 58.3201 187.878 58.0833 187.878 57.8021ZM190.134 58.7401C190.164 58.9029 190.23 59.0287 190.334 59.1175C190.441 59.2026 190.584 59.2452 190.761 59.2452C190.991 59.2452 191.157 59.1508 191.261 58.9621C191.365 58.7697 191.416 58.4478 191.416 57.9964C191.331 58.1148 191.211 58.2073 191.056 58.2739C190.904 58.3405 190.739 58.3738 190.562 58.3738C190.325 58.3738 190.11 58.3257 189.918 58.2295C189.729 58.1296 189.579 57.9834 189.468 57.791C189.357 57.5949 189.302 57.3581 189.302 57.0806C189.302 56.6699 189.424 56.3442 189.668 56.1037C189.912 55.8595 190.245 55.7374 190.667 55.7374C191.193 55.7374 191.563 55.9058 191.777 56.2425C191.995 56.5792 192.105 57.0861 192.105 57.7633C192.105 58.2443 192.062 58.6384 191.977 58.9455C191.896 59.2526 191.753 59.4857 191.55 59.6448C191.35 59.8039 191.076 59.8835 190.728 59.8835C190.454 59.8835 190.221 59.8317 190.029 59.7281C189.836 59.6208 189.688 59.482 189.585 59.3118C189.485 59.1379 189.428 58.9473 189.413 58.7401H190.134ZM190.723 57.7411C190.915 57.7411 191.067 57.6819 191.178 57.5635C191.289 57.4451 191.344 57.2859 191.344 57.0861C191.344 56.8678 191.285 56.6995 191.167 56.5811C191.052 56.459 190.895 56.3979 190.695 56.3979C190.495 56.3979 190.336 56.4608 190.218 56.5866C190.103 56.7087 190.045 56.8715 190.045 57.075C190.045 57.2711 190.101 57.4321 190.212 57.5579C190.327 57.68 190.497 57.7411 190.723 57.7411Z" fill="white"/>
<line opacity="0.09" x1="1.32778" y1="125.766" x2="207.306" y2="125.766" stroke="#6C5FBC" stroke-width="0.585257" stroke-linecap="round"/>
<line opacity="0.09" x1="2.00943" y1="101.109" x2="207.988" y2="101.109" stroke="#6C5FBC" stroke-width="0.585257" stroke-linecap="round"/>
<line opacity="0.09" x1="1.32778" y1="75.7259" x2="207.306" y2="75.7259" stroke="#6C5FBC" stroke-width="0.585257" stroke-linecap="round"/>
<g clip-path="url(#clip0_1_16840)">
<rect x="26.873" y="0.277344" width="37.9194" height="18.2662" rx="9.13309" fill="#6C5FBC"/>
<path d="M43.1004 6.98609V11.4102H42.5186V8.11128L41.0482 11.4102H40.639L39.1622 8.10489V11.4102H38.5804V6.98609H39.207L40.8436 10.643L42.4803 6.98609H43.1004ZM43.8697 9.64564C43.8697 9.28763 43.9421 8.97436 44.0871 8.70585C44.232 8.43307 44.4301 8.2221 44.6816 8.07293C44.9373 7.92375 45.2208 7.84916 45.5319 7.84916C45.8388 7.84916 46.1052 7.91523 46.3311 8.04735C46.5569 8.17948 46.7253 8.3457 46.8361 8.54602V7.9067H47.4243V11.4102H46.8361V10.7581C46.721 10.9626 46.5484 11.1331 46.3183 11.2695C46.0924 11.4016 45.8281 11.4677 45.5255 11.4677C45.2144 11.4677 44.9331 11.391 44.6816 11.2375C44.4301 11.0841 44.232 10.8689 44.0871 10.5918C43.9421 10.3148 43.8697 9.9994 43.8697 9.64564ZM46.8361 9.65204C46.8361 9.38779 46.7828 9.15763 46.6763 8.96158C46.5697 8.76552 46.4248 8.61634 46.2415 8.51405C46.0625 8.4075 45.8643 8.35422 45.647 8.35422C45.4296 8.35422 45.2314 8.40537 45.0524 8.50766C44.8734 8.60995 44.7306 8.75913 44.6241 8.95518C44.5175 9.15124 44.4642 9.38139 44.4642 9.64564C44.4642 9.91416 44.5175 10.1486 44.6241 10.3489C44.7306 10.5449 44.8734 10.6963 45.0524 10.8028C45.2314 10.9051 45.4296 10.9562 45.647 10.9562C45.8643 10.9562 46.0625 10.9051 46.2415 10.8028C46.4248 10.6963 46.5697 10.5449 46.6763 10.3489C46.7828 10.1486 46.8361 9.91629 46.8361 9.65204ZM48.7079 7.33771C48.5971 7.33771 48.5033 7.29935 48.4266 7.22264C48.3499 7.14592 48.3115 7.05215 48.3115 6.94134C48.3115 6.83052 48.3499 6.73675 48.4266 6.66004C48.5033 6.58332 48.5971 6.54496 48.7079 6.54496C48.8145 6.54496 48.904 6.58332 48.9764 6.66004C49.0531 6.73675 49.0915 6.83052 49.0915 6.94134C49.0915 7.05215 49.0531 7.14592 48.9764 7.22264C48.904 7.29935 48.8145 7.33771 48.7079 7.33771ZM48.9892 7.9067V11.4102H48.4074V7.9067H48.9892ZM51.6877 7.84277C52.1139 7.84277 52.4592 7.97277 52.7234 8.23275C52.9877 8.48848 53.1198 8.85928 53.1198 9.34516V11.4102H52.5444V9.42828C52.5444 9.07878 52.457 8.8124 52.2823 8.62913C52.1075 8.4416 51.8689 8.34783 51.5662 8.34783C51.2594 8.34783 51.0143 8.44373 50.831 8.63552C50.652 8.82732 50.5625 9.10649 50.5625 9.47303V11.4102H49.9807V7.9067H50.5625V8.40537C50.6776 8.22636 50.8332 8.08784 51.0292 7.98981C51.2295 7.89179 51.449 7.84277 51.6877 7.84277Z" fill="white"/>
<path d="M83.6835 6.63681L82.2998 11.4111H81.6012L80.4915 7.56839L79.3407 11.4111L78.6489 11.418L77.3132 6.63681H77.9776L79.0188 10.6851L80.1695 6.63681H80.8682L81.9642 10.6714L83.0122 6.63681H83.6835ZM87.859 9.39044C87.859 9.50917 87.8522 9.63475 87.8385 9.76718H84.8383C84.8611 10.1371 84.9867 10.427 85.215 10.6371C85.4479 10.8426 85.7288 10.9453 86.0575 10.9453C86.327 10.9453 86.5507 10.8837 86.7288 10.7604C86.9115 10.6325 87.0394 10.4636 87.1124 10.2535H87.7837C87.6832 10.6143 87.4823 10.9088 87.1809 11.1371C86.8795 11.3609 86.5051 11.4728 86.0575 11.4728C85.7014 11.4728 85.3817 11.3929 85.0986 11.233C84.82 11.0732 84.6008 10.8472 84.441 10.5549C84.2812 10.2581 84.2012 9.91559 84.2012 9.52743C84.2012 9.13928 84.2789 8.79907 84.4341 8.50681C84.5894 8.21455 84.8063 7.99079 85.0849 7.83553C85.368 7.6757 85.6922 7.59579 86.0575 7.59579C86.4137 7.59579 86.7288 7.67342 87.0028 7.82868C87.2768 7.98394 87.4869 8.19857 87.633 8.47256C87.7837 8.74199 87.859 9.04795 87.859 9.39044ZM87.2152 9.26029C87.2152 9.02283 87.1626 8.81962 87.0576 8.65066C86.9526 8.47713 86.8087 8.34698 86.6261 8.26022C86.448 8.16889 86.2493 8.12322 86.0301 8.12322C85.7151 8.12322 85.4456 8.22369 85.2219 8.42461C85.0027 8.62554 84.8771 8.9041 84.8451 9.26029H87.2152ZM92.1752 9.39044C92.1752 9.50917 92.1684 9.63475 92.1547 9.76718H89.1545C89.1773 10.1371 89.3029 10.427 89.5312 10.6371C89.7641 10.8426 90.0449 10.9453 90.3737 10.9453C90.6432 10.9453 90.8669 10.8837 91.045 10.7604C91.2277 10.6325 91.3555 10.4636 91.4286 10.2535H92.0999C91.9994 10.6143 91.7985 10.9088 91.4971 11.1371C91.1957 11.3609 90.8213 11.4728 90.3737 11.4728C90.0175 11.4728 89.6979 11.3929 89.4148 11.233C89.1362 11.0732 88.917 10.8472 88.7572 10.5549C88.5973 10.2581 88.5174 9.91559 88.5174 9.52743C88.5174 9.13928 88.5951 8.79907 88.7503 8.50681C88.9056 8.21455 89.1225 7.99079 89.4011 7.83553C89.6842 7.6757 90.0084 7.59579 90.3737 7.59579C90.7299 7.59579 91.045 7.67342 91.319 7.82868C91.593 7.98394 91.8031 8.19857 91.9492 8.47256C92.0999 8.74199 92.1752 9.04795 92.1752 9.39044ZM91.5313 9.26029C91.5313 9.02283 91.4788 8.81962 91.3738 8.65066C91.2688 8.47713 91.1249 8.34698 90.9423 8.26022C90.7642 8.16889 90.5655 8.12322 90.3463 8.12322C90.0312 8.12322 89.7618 8.22369 89.5381 8.42461C89.3189 8.62554 89.1933 8.9041 89.1613 9.26029H91.5313ZM95.1626 11.4111L93.6898 9.75348V11.4111H93.0665V6.34227H93.6898V9.32194L95.1352 7.65743H96.0051L94.2378 9.52743L96.0119 11.4111H95.1626ZM97.2836 6.34227V11.4111H96.6603V6.34227H97.2836ZM101.648 7.65743L99.3871 13.1784H98.7432L99.483 11.37L97.9692 7.65743H98.661L99.8392 10.6988L101.004 7.65743H101.648Z" fill="#828282"/>
<path d="M125.084 6.67106V11.4111H124.46V7.87663L122.885 11.4111H122.446L120.864 7.86978V11.4111H120.241V6.67106H120.912L122.666 10.5892L124.419 6.67106H125.084ZM127.846 11.4728C127.495 11.4728 127.175 11.3929 126.887 11.233C126.604 11.0732 126.381 10.8472 126.216 10.5549C126.056 10.2581 125.976 9.91559 125.976 9.52743C125.976 9.14384 126.059 8.80592 126.223 8.51366C126.392 8.21684 126.62 7.99079 126.908 7.83553C127.196 7.6757 127.518 7.59579 127.874 7.59579C128.23 7.59579 128.552 7.6757 128.84 7.83553C129.127 7.99079 129.353 8.21455 129.518 8.50681C129.687 8.79907 129.771 9.13928 129.771 9.52743C129.771 9.91559 129.684 10.2581 129.511 10.5549C129.342 10.8472 129.111 11.0732 128.819 11.233C128.527 11.3929 128.203 11.4728 127.846 11.4728ZM127.846 10.9248C128.07 10.9248 128.28 10.8723 128.477 10.7673C128.673 10.6622 128.83 10.5047 128.949 10.2946C129.072 10.0846 129.134 9.82883 129.134 9.52743C129.134 9.22604 129.075 8.97032 128.956 8.76025C128.837 8.55019 128.682 8.39493 128.49 8.29447C128.298 8.18944 128.091 8.13692 127.867 8.13692C127.639 8.13692 127.429 8.18944 127.237 8.29447C127.05 8.39493 126.899 8.55019 126.785 8.76025C126.67 8.97032 126.613 9.22604 126.613 9.52743C126.613 9.83339 126.668 10.0914 126.778 10.3015C126.892 10.5115 127.043 10.6691 127.23 10.7741C127.417 10.8746 127.623 10.9248 127.846 10.9248ZM132.488 7.58894C132.945 7.58894 133.315 7.72822 133.598 8.00677C133.881 8.28077 134.022 8.67806 134.022 9.19864V11.4111H133.406V9.28769C133.406 8.91323 133.312 8.62782 133.125 8.43146C132.938 8.23053 132.682 8.13007 132.358 8.13007C132.029 8.13007 131.767 8.23282 131.57 8.43831C131.378 8.64381 131.283 8.94292 131.283 9.33564V11.4111H130.659V7.65743H131.283V8.19172C131.406 7.99992 131.573 7.85151 131.783 7.74648C131.997 7.64145 132.232 7.58894 132.488 7.58894ZM135.87 8.17117V10.3837C135.87 10.5663 135.908 10.6965 135.986 10.7741C136.064 10.8472 136.198 10.8837 136.39 10.8837H136.849V11.4111H136.287C135.94 11.4111 135.68 11.3312 135.506 11.1714C135.333 11.0116 135.246 10.749 135.246 10.3837V8.17117H134.76V7.65743H135.246V6.71216H135.87V7.65743H136.849V8.17117H135.87ZM138.296 6.34227V11.4111H137.673V6.34227H138.296ZM142.66 7.65743L140.4 13.1784H139.756L140.496 11.37L138.982 7.65743H139.674L140.852 10.6988L142.016 7.65743H142.66Z" fill="#828282"/>
<path d="M164.175 6.63681L162.62 9.60963V11.4111H161.997V9.60963L160.435 6.63681H161.127L162.305 9.0548L163.483 6.63681H164.175ZM168.326 9.39044C168.326 9.50917 168.319 9.63475 168.305 9.76718H165.305C165.328 10.1371 165.453 10.427 165.682 10.6371C165.915 10.8426 166.196 10.9453 166.524 10.9453C166.794 10.9453 167.018 10.8837 167.196 10.7604C167.378 10.6325 167.506 10.4636 167.579 10.2535H168.25C168.15 10.6143 167.949 10.9088 167.648 11.1371C167.346 11.3609 166.972 11.4728 166.524 11.4728C166.168 11.4728 165.848 11.3929 165.565 11.233C165.287 11.0732 165.068 10.8472 164.908 10.5549C164.748 10.2581 164.668 9.91559 164.668 9.52743C164.668 9.13928 164.746 8.79907 164.901 8.50681C165.056 8.21455 165.273 7.99079 165.552 7.83553C165.835 7.6757 166.159 7.59579 166.524 7.59579C166.881 7.59579 167.196 7.67342 167.47 7.82868C167.744 7.98394 167.954 8.19857 168.1 8.47256C168.25 8.74199 168.326 9.04795 168.326 9.39044ZM167.682 9.26029C167.682 9.02283 167.629 8.81962 167.524 8.65066C167.419 8.47713 167.276 8.34698 167.093 8.26022C166.915 8.16889 166.716 8.12322 166.497 8.12322C166.182 8.12322 165.912 8.22369 165.689 8.42461C165.469 8.62554 165.344 8.9041 165.312 9.26029H167.682ZM168.984 9.52058C168.984 9.13699 169.062 8.80135 169.217 8.51366C169.372 8.2214 169.585 7.99536 169.854 7.83553C170.128 7.6757 170.432 7.59579 170.765 7.59579C171.094 7.59579 171.379 7.66657 171.621 7.80813C171.863 7.94969 172.044 8.12779 172.163 8.34242V7.65743H172.793V11.4111H172.163V10.7125C172.039 10.9316 171.854 11.1143 171.608 11.2604C171.366 11.402 171.083 11.4728 170.758 11.4728C170.425 11.4728 170.124 11.3906 169.854 11.2262C169.585 11.0618 169.372 10.8312 169.217 10.5344C169.062 10.2375 168.984 9.89961 168.984 9.52058ZM172.163 9.52743C172.163 9.24431 172.105 8.99771 171.991 8.78765C171.877 8.57759 171.722 8.41776 171.526 8.30817C171.334 8.194 171.121 8.13692 170.888 8.13692C170.656 8.13692 170.443 8.19172 170.251 8.30132C170.06 8.41091 169.907 8.57074 169.793 8.7808C169.678 8.99086 169.621 9.23746 169.621 9.52058C169.621 9.80828 169.678 10.0594 169.793 10.2741C169.907 10.4841 170.06 10.6462 170.251 10.7604C170.443 10.87 170.656 10.9248 170.888 10.9248C171.121 10.9248 171.334 10.87 171.526 10.7604C171.722 10.6462 171.877 10.4841 171.991 10.2741C172.105 10.0594 172.163 9.81056 172.163 9.52743ZM174.538 8.26707C174.648 8.05244 174.803 7.88576 175.004 7.76703C175.209 7.6483 175.458 7.58894 175.75 7.58894V8.23282H175.586C174.887 8.23282 174.538 8.61184 174.538 9.36989V11.4111H173.915V7.65743H174.538V8.26707ZM177.162 6.34227V11.4111H176.538V6.34227H177.162ZM181.526 7.65743L179.265 13.1784H178.621L179.361 11.37L177.847 7.65743H178.539L179.717 10.6988L180.882 7.65743H181.526Z" fill="#828282"/>
</g>
<defs>
<clipPath id="clip0_1_16840">
<rect x="26.873" y="0.277344" width="159.389" height="18.2662" rx="9.13309" fill="white"/>
</clipPath>
</defs>
</svg>
